<svg xmlns="http://www.w3.org/2000/svg" xmlns:xlink="http://www.w3.org/1999/xlink" width="600" zoomAndPan="magnify" viewBox="0 0 450 149.999998" height="200" preserveAspectRatio="xMidYMid meet" version="1.0"><defs><g/></defs><path fill="#ffffff" d="M 186.359375 47.328125 C 178.796875 54.519531 168.273438 57.429688 158.199219 58.882812 C 149.207031 60.207031 139.816406 60.761719 131.777344 64.253906 C 123.371094 67.929688 118.082031 74.011719 118.503906 83.425781 C 118.769531 89.085938 121.808594 94.613281 126.09375 98.871094 C 127.28125 99.820312 128.5 100.722656 129.769531 101.539062 C 129.691406 101.382812 129.609375 101.195312 129.476562 101.039062 C 124.375 94.03125 120.40625 73.957031 147.117188 69.59375 C 152.484375 68.722656 157.855469 67.824219 163.195312 66.605469 C 167.902344 65.523438 176.3125 62.878906 177.238281 62.375 C 178.003906 61.925781 172.238281 68.40625 154.574219 73.480469 C 126.515625 81.546875 135.136719 104.847656 143.707031 107.515625 C 146.984375 108.308594 150.421875 108.707031 153.941406 108.707031 C 178.429688 108.707031 198.289062 88.875 198.289062 64.386719 C 198.289062 55.578125 195.722656 47.382812 191.304688 40.503906 C 190.117188 43.097656 188.449219 45.320312 186.359375 47.328125 Z M 186.359375 47.328125 " fill-opacity="1" fill-rule="nonzero"/><path fill="#ffffff" d="M 109.617188 64.386719 C 109.617188 69.25 110.410156 73.878906 111.839844 78.269531 C 112.367188 73.457031 114.007812 68.90625 117.074219 65.046875 C 122.628906 57.984375 131.25 54.679688 140.214844 52.90625 C 149.152344 51.164062 158.671875 50.953125 167.851562 48.730469 C 172.925781 47.511719 178.085938 45.53125 182.183594 42.277344 C 185.59375 39.527344 187.179688 35.347656 183.636719 31.460938 C 182.339844 30.296875 180.964844 29.1875 179.539062 28.183594 C 182.128906 33.496094 180.121094 41.40625 159.097656 43.46875 C 153.703125 44.023438 148.332031 44.523438 143.019531 45.265625 C 141.457031 45.476562 139.527344 45.769531 137.542969 46.113281 C 137.542969 46.113281 139.289062 43.941406 151.613281 41.140625 C 176.945312 35.429688 172.214844 24.402344 164.703125 21.359375 C 161.265625 20.511719 157.640625 20.035156 153.941406 20.035156 C 129.453125 20.0625 109.617188 39.898438 109.617188 64.386719 Z M 109.617188 64.386719 " fill-opacity="1" fill-rule="nonzero"/><g fill="#ffffff" fill-opacity="1"><g transform="translate(209.139791, 102.311203)"><g><path d="M 13.15625 -77.8125 C 19.382812 -77.8125 22.5 -74.59375 22.5 -68.15625 L 22.5 -56.484375 C 22.5 -53.597656 22.273438 -51.207031 21.828125 -49.3125 C 21.378906 -47.425781 20.671875 -45.609375 19.703125 -43.859375 C 18.734375 -42.109375 17.132812 -39.679688 14.90625 -36.578125 C 12.632812 -33.460938 11.148438 -31.097656 10.453125 -29.484375 C 9.765625 -27.878906 9.421875 -25.800781 9.421875 -23.25 L 9.421875 0 L 2.5 0 L 2.5 -77.8125 Z M 9.421875 -70.90625 L 9.421875 -40.90625 C 9.921875 -41.570312 10.195312 -41.929688 10.25 -41.984375 C 12.46875 -45.046875 13.910156 -47.410156 14.578125 -49.078125 C 15.242188 -50.742188 15.578125 -52.90625 15.578125 -55.5625 L 15.578125 -67.3125 C 15.578125 -68.425781 15.351562 -69.300781 14.90625 -69.9375 C 14.46875 -70.582031 13.664062 -70.90625 12.5 -70.90625 Z M 9.421875 -70.90625 "/></g></g></g><g fill="#ffffff" fill-opacity="1"><g transform="translate(234.13242, 102.311203)"><g><path d="M 22.15625 -77.8125 L 22.15625 0 L 15.25 0 L 15.25 -23.328125 C 15.25 -25.773438 14.898438 -27.816406 14.203125 -29.453125 C 13.503906 -31.085938 12.046875 -33.429688 9.828125 -36.484375 C 7.609375 -39.546875 6 -41.960938 5 -43.734375 C 4 -45.515625 3.289062 -47.347656 2.875 -49.234375 C 2.457031 -51.128906 2.25 -53.519531 2.25 -56.40625 L 2.25 -77.8125 L 9.171875 -77.8125 L 9.171875 -55.5625 C 9.171875 -52.90625 9.5 -50.726562 10.15625 -49.03125 C 10.820312 -47.332031 12.269531 -44.957031 14.5 -41.90625 L 15.25 -40.828125 L 15.25 -77.8125 Z M 22.15625 -77.8125 "/></g></g></g><g fill="#ffffff" fill-opacity="1"><g transform="translate(258.791822, 102.311203)"><g><path d="M 22.40625 -70.90625 L 15.90625 -70.90625 L 15.90625 0 L 9 0 L 9 -70.90625 L 2.5 -70.90625 L 2.5 -77.8125 L 22.40625 -77.8125 Z M 22.40625 -70.90625 "/></g></g></g><g fill="#ffffff" fill-opacity="1"><g transform="translate(283.70115, 102.311203)"><g><path d="M 2.5 -77.8125 L 2.5 0 L 9.328125 0 L 9.421875 -23.25 C 9.421875 -25.800781 9.765625 -27.894531 10.453125 -29.53125 C 11.148438 -31.164062 12.609375 -33.515625 14.828125 -36.578125 L 15.5 -37.484375 L 15.5 0 L 22.40625 0 L 22.40625 -77.8125 L 15.5 -77.8125 L 15.5 -55.5625 C 15.5 -52.90625 15.164062 -50.742188 14.5 -49.078125 C 13.832031 -47.410156 12.390625 -45.046875 10.171875 -41.984375 C 9.671875 -41.316406 9.390625 -40.957031 9.328125 -40.90625 L 9.328125 -77.8125 Z M 2.5 -77.8125 "/></g></g></g><g fill="#ffffff" fill-opacity="1"><g transform="translate(308.693778, 102.311203)"><g><path d="M 13.078125 -78.890625 C 19.296875 -78.890625 22.40625 -75.695312 22.40625 -69.3125 L 22.40625 -9.578125 C 22.40625 -3.191406 19.296875 0 13.078125 0 L 16.75 0 L 11.828125 0 C 8.492188 0 6.101562 -0.84375 4.65625 -2.53125 C 3.21875 -4.226562 2.5 -6.578125 2.5 -9.578125 L 2.5 -69.3125 C 2.5 -72.363281 3.21875 -74.722656 4.65625 -76.390625 C 6.101562 -78.054688 8.492188 -78.890625 11.828125 -78.890625 L 15.90625 -78.890625 Z M 15.5 -68.40625 C 15.5 -69.507812 15.273438 -70.378906 14.828125 -71.015625 C 14.378906 -71.660156 13.570312 -71.984375 12.40625 -71.984375 C 11.238281 -71.984375 10.445312 -71.660156 10.03125 -71.015625 C 9.625 -70.378906 9.421875 -69.507812 9.421875 -68.40625 L 9.421875 -10.5 C 9.421875 -9.382812 9.625 -8.507812 10.03125 -7.875 C 10.445312 -7.238281 11.238281 -6.921875 12.40625 -6.921875 C 13.570312 -6.921875 14.378906 -7.238281 14.828125 -7.875 C 15.273438 -8.507812 15.5 -9.382812 15.5 -10.5 Z M 15.5 -68.40625 "/></g></g></g><g fill="#ffffff" fill-opacity="1"><g transform="translate(333.603106, 102.311203)"><g><path d="M 22.40625 -77.8125 L 22.40625 0 L 15.65625 0 L 9.078125 -42.734375 L 9.078125 0 L 2.5 0 L 2.5 -77.8125 L 9.078125 -77.8125 L 15.65625 -35.734375 L 15.65625 -77.8125 Z M 22.40625 -77.8125 "/></g></g></g><g fill="#ffffff" fill-opacity="1"><g transform="translate(358.512434, 102.311203)"><g/></g></g><g fill="#ffffff" fill-opacity="1"><g transform="translate(375.174194, 102.311203)"><g><path d="M 13.15625 -77.8125 C 19.382812 -77.8125 22.5 -74.59375 22.5 -68.15625 L 22.5 -56.484375 C 22.5 -53.597656 22.273438 -51.207031 21.828125 -49.3125 C 21.378906 -47.425781 20.671875 -45.609375 19.703125 -43.859375 C 18.734375 -42.109375 17.132812 -39.679688 14.90625 -36.578125 C 12.632812 -33.460938 11.148438 -31.097656 10.453125 -29.484375 C 9.765625 -27.878906 9.421875 -25.800781 9.421875 -23.25 L 9.421875 0 L 2.5 0 L 2.5 -77.8125 Z M 9.421875 -70.90625 L 9.421875 -40.90625 C 9.921875 -41.570312 10.195312 -41.929688 10.25 -41.984375 C 12.46875 -45.046875 13.910156 -47.410156 14.578125 -49.078125 C 15.242188 -50.742188 15.578125 -52.90625 15.578125 -55.5625 L 15.578125 -67.3125 C 15.578125 -68.425781 15.351562 -69.300781 14.90625 -69.9375 C 14.46875 -70.582031 13.664062 -70.90625 12.5 -70.90625 Z M 9.421875 -70.90625 "/></g></g></g><g fill="#ffffff" fill-opacity="1"><g transform="translate(400.166822, 102.311203)"><g><path d="M 22.40625 0 L 15.578125 0 L 15.5 -23.828125 C 15.5 -25.828125 15.300781 -27.503906 14.90625 -28.859375 C 14.519531 -30.222656 13.769531 -31.738281 12.65625 -33.40625 C 11.382812 -31.46875 10.523438 -29.773438 10.078125 -28.328125 C 9.640625 -26.878906 9.421875 -25.019531 9.421875 -22.75 L 9.421875 0 L 2.5 0 L 2.5 -77.8125 L 13.078125 -77.8125 C 19.296875 -77.8125 22.40625 -74.59375 22.40625 -68.15625 L 22.40625 -56.15625 C 22.40625 -52.488281 22.046875 -49.570312 21.328125 -47.40625 C 20.609375 -45.238281 19.164062 -42.597656 17 -39.484375 C 19.101562 -36.484375 20.53125 -33.914062 21.28125 -31.78125 C 22.03125 -29.644531 22.40625 -26.828125 22.40625 -23.328125 Z M 15.5 -67.3125 C 15.5 -68.425781 15.289062 -69.300781 14.875 -69.9375 C 14.457031 -70.582031 13.664062 -70.90625 12.5 -70.90625 L 9.421875 -70.90625 L 9.421875 -40.90625 C 9.585938 -41.070312 9.710938 -41.238281 9.796875 -41.40625 C 9.878906 -41.570312 9.972656 -41.710938 10.078125 -41.828125 C 12.296875 -44.878906 13.753906 -47.222656 14.453125 -48.859375 C 15.148438 -50.503906 15.5 -52.601562 15.5 -55.15625 Z M 15.5 -67.3125 "/></g></g></g><g fill="#ffffff" fill-opacity="1"><g transform="translate(425.07615, 102.311203)"><g><path d="M 13.078125 -78.890625 C 19.296875 -78.890625 22.40625 -75.695312 22.40625 -69.3125 L 22.40625 -9.578125 C 22.40625 -3.191406 19.296875 0 13.078125 0 L 16.75 0 L 11.828125 0 C 8.492188 0 6.101562 -0.84375 4.65625 -2.53125 C 3.21875 -4.226562 2.5 -6.578125 2.5 -9.578125 L 2.5 -69.3125 C 2.5 -72.363281 3.21875 -74.722656 4.65625 -76.390625 C 6.101562 -78.054688 8.492188 -78.890625 11.828125 -78.890625 L 15.90625 -78.890625 Z M 15.5 -68.40625 C 15.5 -69.507812 15.273438 -70.378906 14.828125 -71.015625 C 14.378906 -71.660156 13.570312 -71.984375 12.40625 -71.984375 C 11.238281 -71.984375 10.445312 -71.660156 10.03125 -71.015625 C 9.625 -70.378906 9.421875 -69.507812 9.421875 -68.40625 L 9.421875 -10.5 C 9.421875 -9.382812 9.625 -8.507812 10.03125 -7.875 C 10.445312 -7.238281 11.238281 -6.921875 12.40625 -6.921875 C 13.570312 -6.921875 14.378906 -7.238281 14.828125 -7.875 C 15.273438 -8.507812 15.5 -9.382812 15.5 -10.5 Z M 15.5 -68.40625 "/></g></g></g><g fill="#ffffff" fill-opacity="1"><g transform="translate(0.310532, 96.57264)"><g><path d="M 14.894531 -23.460938 L 14.894531 -7.753906 C 14.894531 -4.761719 14.214844 -2.175781 10.066406 -2.175781 C 5.984375 -2.175781 5.304688 -4.761719 5.304688 -7.753906 L 5.304688 -55.835938 C 5.304688 -58.894531 5.984375 -61.410156 10.066406 -61.410156 C 14.144531 -61.410156 14.894531 -58.828125 14.894531 -55.835938 L 14.894531 -40.191406 L 17.410156 -40.191406 L 17.410156 -56.921875 C 17.410156 -61.070312 15.710938 -63.996094 10.542969 -63.996094 L 9.589844 -63.996094 C 4.421875 -63.996094 2.71875 -61.070312 2.71875 -57.601562 L 2.71875 -7.34375 C 2.71875 -2.515625 4.488281 0.40625 9.589844 0.40625 L 10.542969 0.40625 C 15.777344 0.40625 17.410156 -2.515625 17.410156 -6.664062 L 17.410156 -23.460938 Z M 14.894531 -23.460938 "/></g></g></g><g fill="#ffffff" fill-opacity="1"><g transform="translate(20.440254, 96.57264)"><g><path d="M 14.894531 -63.519531 L 14.894531 -7.753906 C 14.894531 -4.761719 14.214844 -2.175781 10.132812 -2.175781 C 5.984375 -2.175781 5.304688 -4.761719 5.304688 -7.753906 L 5.304688 -63.519531 L 2.71875 -63.519531 L 2.71875 -7.34375 C 2.71875 -2.515625 4.488281 0.40625 9.589844 0.40625 L 10.542969 0.40625 C 15.777344 0.40625 17.476562 -2.515625 17.476562 -6.664062 L 17.476562 -63.519531 Z M 14.894531 -63.519531 "/></g></g></g><g fill="#ffffff" fill-opacity="1"><g transform="translate(40.637983, 96.57264)"><g><path d="M 11.628906 -32.03125 C 15.4375 -37.539062 17.476562 -40.058594 17.476562 -46.3125 L 17.476562 -56.445312 C 17.476562 -60.59375 15.777344 -63.519531 10.542969 -63.519531 L 2.71875 -63.519531 L 2.71875 0 L 5.304688 0 L 5.304688 -18.972656 C 5.304688 -22.988281 7.683594 -26.386719 10.066406 -29.789062 C 12.445312 -26.386719 14.894531 -22.988281 14.894531 -18.972656 L 14.894531 0 L 17.476562 0 L 17.476562 -18.363281 C 17.476562 -23.9375 15.507812 -26.523438 11.628906 -32.03125 Z M 5.304688 -27.269531 L 5.304688 -60.933594 L 10.132812 -60.933594 C 14.214844 -60.933594 14.894531 -58.351562 14.894531 -55.359375 L 14.894531 -45.566406 C 14.894531 -41.347656 12.988281 -38.425781 9.65625 -33.597656 C 7.820312 -31.011719 6.394531 -29.039062 5.304688 -27.269531 Z M 5.304688 -27.269531 "/></g></g></g><g fill="#ffffff" fill-opacity="1"><g transform="translate(60.835713, 96.57264)"><g><path d="M 17.476562 -18.363281 C 17.476562 -24.484375 15.164062 -26.929688 10.542969 -33.597656 C 7.140625 -38.492188 5.238281 -41.347656 5.304688 -45.632812 L 5.304688 -55.835938 C 5.304688 -58.828125 5.984375 -61.410156 10.066406 -61.410156 C 14.144531 -61.410156 14.894531 -58.828125 14.894531 -55.835938 L 14.894531 -40.191406 L 17.476562 -40.191406 L 17.476562 -56.921875 C 17.476562 -61.070312 15.710938 -63.996094 10.542969 -63.996094 L 9.589844 -63.996094 C 4.421875 -63.996094 2.71875 -61.070312 2.71875 -56.921875 L 2.71875 -46.3125 C 2.71875 -39.71875 4.964844 -37.269531 9.316406 -30.945312 C 11.902344 -27.203125 14.894531 -23.460938 14.894531 -19.042969 L 14.894531 -7.753906 C 14.894531 -4.761719 14.214844 -2.175781 10.132812 -2.175781 C 5.984375 -2.175781 5.304688 -4.761719 5.304688 -7.753906 L 5.304688 -23.257812 L 2.71875 -23.257812 L 2.71875 -6.664062 C 2.71875 -2.515625 4.488281 0.40625 9.589844 0.40625 L 10.542969 0.40625 C 15.777344 0.40625 17.476562 -2.515625 17.476562 -6.664062 Z M 17.476562 -18.363281 "/></g></g></g><g fill="#ffffff" fill-opacity="1"><g transform="translate(81.033443, 96.57264)"><g><path d="M 17.476562 -56.921875 C 17.476562 -61.070312 15.710938 -63.996094 10.542969 -63.996094 L 9.65625 -63.996094 C 4.421875 -63.996094 2.71875 -61.070312 2.71875 -57.601562 L 2.71875 -7.34375 C 2.71875 -2.515625 4.488281 0.40625 9.589844 0.40625 L 10.542969 0.40625 C 15.777344 0.40625 17.476562 -2.515625 17.476562 -6.664062 Z M 14.894531 -7.753906 C 14.894531 -4.761719 14.214844 -2.175781 10.132812 -2.175781 C 5.984375 -2.175781 5.304688 -4.761719 5.304688 -7.753906 L 5.304688 -55.835938 C 5.304688 -58.828125 5.984375 -61.410156 10.066406 -61.410156 C 14.214844 -61.410156 14.894531 -58.828125 14.894531 -55.835938 Z M 14.894531 -7.753906 "/></g></g></g><g fill="#ffde59" fill-opacity="1"><g transform="translate(58.503139, 131.641654)"><g><path d="M 9.359375 -3.546875 C 9.359375 -2.367188 8.929688 -1.453125 8.078125 -0.796875 C 7.234375 -0.140625 6.078125 0.1875 4.609375 0.1875 C 3.035156 0.1875 1.820312 -0.015625 0.96875 -0.421875 L 0.96875 -1.921875 C 1.507812 -1.691406 2.101562 -1.507812 2.75 -1.375 C 3.394531 -1.238281 4.035156 -1.171875 4.671875 -1.171875 C 5.703125 -1.171875 6.476562 -1.367188 7 -1.765625 C 7.53125 -2.160156 7.796875 -2.707031 7.796875 -3.40625 C 7.796875 -3.863281 7.703125 -4.238281 7.515625 -4.53125 C 7.328125 -4.832031 7.015625 -5.109375 6.578125 -5.359375 C 6.148438 -5.609375 5.488281 -5.890625 4.59375 -6.203125 C 3.351562 -6.648438 2.46875 -7.175781 1.9375 -7.78125 C 1.40625 -8.394531 1.140625 -9.191406 1.140625 -10.171875 C 1.140625 -11.191406 1.523438 -12.003906 2.296875 -12.609375 C 3.066406 -13.222656 4.085938 -13.53125 5.359375 -13.53125 C 6.691406 -13.53125 7.914062 -13.285156 9.03125 -12.796875 L 8.546875 -11.453125 C 7.441406 -11.910156 6.367188 -12.140625 5.328125 -12.140625 C 4.503906 -12.140625 3.859375 -11.960938 3.390625 -11.609375 C 2.929688 -11.265625 2.703125 -10.773438 2.703125 -10.140625 C 2.703125 -9.679688 2.785156 -9.300781 2.953125 -9 C 3.128906 -8.707031 3.421875 -8.4375 3.828125 -8.1875 C 4.234375 -7.945312 4.851562 -7.675781 5.6875 -7.375 C 7.082031 -6.882812 8.039062 -6.351562 8.5625 -5.78125 C 9.09375 -5.207031 9.359375 -4.460938 9.359375 -3.546875 Z M 9.359375 -3.546875 "/></g></g></g><g fill="#ffde59" fill-opacity="1"><g transform="translate(68.760834, 131.641654)"><g><path d="M 9.265625 0 L 1.828125 0 L 1.828125 -13.34375 L 9.265625 -13.34375 L 9.265625 -11.96875 L 3.390625 -11.96875 L 3.390625 -7.671875 L 8.921875 -7.671875 L 8.921875 -6.296875 L 3.390625 -6.296875 L 3.390625 -1.390625 L 9.265625 -1.390625 Z M 9.265625 0 "/></g></g></g><g fill="#ffde59" fill-opacity="1"><g transform="translate(79.15542, 131.641654)"><g><path d="M 11.90625 -13.34375 L 11.90625 -4.703125 C 11.90625 -3.179688 11.445312 -1.984375 10.53125 -1.109375 C 9.613281 -0.242188 8.351562 0.1875 6.75 0.1875 C 5.132812 0.1875 3.890625 -0.25 3.015625 -1.125 C 2.140625 -2.007812 1.703125 -3.21875 1.703125 -4.75 L 1.703125 -13.34375 L 3.25 -13.34375 L 3.25 -4.640625 C 3.25 -3.523438 3.550781 -2.664062 4.15625 -2.0625 C 4.769531 -1.46875 5.664062 -1.171875 6.84375 -1.171875 C 7.96875 -1.171875 8.832031 -1.46875 9.4375 -2.0625 C 10.050781 -2.664062 10.359375 -3.53125 10.359375 -4.65625 L 10.359375 -13.34375 Z M 11.90625 -13.34375 "/></g></g></g><g fill="#ffde59" fill-opacity="1"><g transform="translate(92.762381, 131.641654)"><g/></g></g><g fill="#ffde59" fill-opacity="1"><g transform="translate(97.617446, 131.641654)"><g><path d="M 10.296875 -9.453125 C 10.296875 -8.097656 9.832031 -7.054688 8.90625 -6.328125 C 7.988281 -5.609375 6.671875 -5.25 4.953125 -5.25 L 3.390625 -5.25 L 3.390625 0 L 1.828125 0 L 1.828125 -13.34375 L 5.296875 -13.34375 C 8.628906 -13.34375 10.296875 -12.046875 10.296875 -9.453125 Z M 3.390625 -6.578125 L 4.78125 -6.578125 C 6.15625 -6.578125 7.148438 -6.796875 7.765625 -7.234375 C 8.378906 -7.679688 8.6875 -8.394531 8.6875 -9.375 C 8.6875 -10.257812 8.394531 -10.914062 7.8125 -11.34375 C 7.238281 -11.78125 6.34375 -12 5.125 -12 L 3.390625 -12 Z M 3.390625 -6.578125 "/></g></g></g><g fill="#ffde59" fill-opacity="1"><g transform="translate(108.869883, 131.641654)"><g><path d="M 13.40625 -6.6875 C 13.40625 -4.550781 12.863281 -2.867188 11.78125 -1.640625 C 10.707031 -0.421875 9.210938 0.1875 7.296875 0.1875 C 5.328125 0.1875 3.804688 -0.410156 2.734375 -1.609375 C 1.671875 -2.816406 1.140625 -4.515625 1.140625 -6.703125 C 1.140625 -8.878906 1.675781 -10.5625 2.75 -11.75 C 3.820312 -12.945312 5.34375 -13.546875 7.3125 -13.546875 C 9.226562 -13.546875 10.722656 -12.9375 11.796875 -11.71875 C 12.867188 -10.507812 13.40625 -8.832031 13.40625 -6.6875 Z M 2.78125 -6.6875 C 2.78125 -4.882812 3.164062 -3.515625 3.9375 -2.578125 C 4.707031 -1.640625 5.828125 -1.171875 7.296875 -1.171875 C 8.773438 -1.171875 9.890625 -1.632812 10.640625 -2.5625 C 11.390625 -3.5 11.765625 -4.875 11.765625 -6.6875 C 11.765625 -8.476562 11.390625 -9.835938 10.640625 -10.765625 C 9.890625 -11.691406 8.78125 -12.15625 7.3125 -12.15625 C 5.832031 -12.15625 4.707031 -11.6875 3.9375 -10.75 C 3.164062 -9.820312 2.78125 -8.46875 2.78125 -6.6875 Z M 2.78125 -6.6875 "/></g></g></g><g fill="#ffde59" fill-opacity="1"><g transform="translate(123.425954, 131.641654)"><g><path d="M 3.390625 -5.546875 L 3.390625 0 L 1.828125 0 L 1.828125 -13.34375 L 5.5 -13.34375 C 7.132812 -13.34375 8.34375 -13.023438 9.125 -12.390625 C 9.90625 -11.765625 10.296875 -10.828125 10.296875 -9.578125 C 10.296875 -7.804688 9.398438 -6.613281 7.609375 -6 L 11.234375 0 L 9.40625 0 L 6.171875 -5.546875 Z M 3.390625 -6.875 L 5.515625 -6.875 C 6.609375 -6.875 7.410156 -7.09375 7.921875 -7.53125 C 8.429688 -7.96875 8.6875 -8.617188 8.6875 -9.484375 C 8.6875 -10.367188 8.425781 -11.003906 7.90625 -11.390625 C 7.382812 -11.785156 6.550781 -11.984375 5.40625 -11.984375 L 3.390625 -11.984375 Z M 3.390625 -6.875 "/></g></g></g><g fill="#ffde59" fill-opacity="1"><g transform="translate(134.97955, 131.641654)"><g><path d="M 5.9375 0 L 4.390625 0 L 4.390625 -11.96875 L 0.171875 -11.96875 L 0.171875 -13.34375 L 10.171875 -13.34375 L 10.171875 -11.96875 L 5.9375 -11.96875 Z M 5.9375 0 "/></g></g></g><g fill="#ffde59" fill-opacity="1"><g transform="translate(145.31938, 131.641654)"><g><path d="M 10.21875 0 L 8.5625 -4.25 L 3.21875 -4.25 L 1.5625 0 L 0 0 L 5.28125 -13.390625 L 6.578125 -13.390625 L 11.828125 0 Z M 8.078125 -5.640625 L 6.53125 -9.765625 C 6.320312 -10.296875 6.113281 -10.941406 5.90625 -11.703125 C 5.769531 -11.117188 5.578125 -10.472656 5.328125 -9.765625 L 3.765625 -5.640625 Z M 8.078125 -5.640625 "/></g></g></g><g fill="#ffde59" fill-opacity="1"><g transform="translate(157.146758, 131.641654)"><g><path d="M 1.828125 0 L 1.828125 -13.34375 L 3.390625 -13.34375 L 3.390625 -1.40625 L 9.265625 -1.40625 L 9.265625 0 Z M 1.828125 0 "/></g></g></g><g fill="#ffde59" fill-opacity="1"><g transform="translate(166.847763, 131.641654)"><g/></g></g><g fill="#ffde59" fill-opacity="1"><g transform="translate(171.702829, 131.641654)"><g><path d="M 10.296875 -9.453125 C 10.296875 -8.097656 9.832031 -7.054688 8.90625 -6.328125 C 7.988281 -5.609375 6.671875 -5.25 4.953125 -5.25 L 3.390625 -5.25 L 3.390625 0 L 1.828125 0 L 1.828125 -13.34375 L 5.296875 -13.34375 C 8.628906 -13.34375 10.296875 -12.046875 10.296875 -9.453125 Z M 3.390625 -6.578125 L 4.78125 -6.578125 C 6.15625 -6.578125 7.148438 -6.796875 7.765625 -7.234375 C 8.378906 -7.679688 8.6875 -8.394531 8.6875 -9.375 C 8.6875 -10.257812 8.394531 -10.914062 7.8125 -11.34375 C 7.238281 -11.78125 6.34375 -12 5.125 -12 L 3.390625 -12 Z M 3.390625 -6.578125 "/></g></g></g><g fill="#ffde59" fill-opacity="1"><g transform="translate(182.955265, 131.641654)"><g><path d="M 10.21875 0 L 8.5625 -4.25 L 3.21875 -4.25 L 1.5625 0 L 0 0 L 5.28125 -13.390625 L 6.578125 -13.390625 L 11.828125 0 Z M 8.078125 -5.640625 L 6.53125 -9.765625 C 6.320312 -10.296875 6.113281 -10.941406 5.90625 -11.703125 C 5.769531 -11.117188 5.578125 -10.472656 5.328125 -9.765625 L 3.765625 -5.640625 Z M 8.078125 -5.640625 "/></g></g></g><g fill="#ffde59" fill-opacity="1"><g transform="translate(194.782643, 131.641654)"><g><path d="M 3.390625 -5.546875 L 3.390625 0 L 1.828125 0 L 1.828125 -13.34375 L 5.5 -13.34375 C 7.132812 -13.34375 8.34375 -13.023438 9.125 -12.390625 C 9.90625 -11.765625 10.296875 -10.828125 10.296875 -9.578125 C 10.296875 -7.804688 9.398438 -6.613281 7.609375 -6 L 11.234375 0 L 9.40625 0 L 6.171875 -5.546875 Z M 3.390625 -6.875 L 5.515625 -6.875 C 6.609375 -6.875 7.410156 -7.09375 7.921875 -7.53125 C 8.429688 -7.96875 8.6875 -8.617188 8.6875 -9.484375 C 8.6875 -10.367188 8.425781 -11.003906 7.90625 -11.390625 C 7.382812 -11.785156 6.550781 -11.984375 5.40625 -11.984375 L 3.390625 -11.984375 Z M 3.390625 -6.875 "/></g></g></g><g fill="#ffde59" fill-opacity="1"><g transform="translate(206.33624, 131.641654)"><g><path d="M 10.21875 0 L 8.5625 -4.25 L 3.21875 -4.25 L 1.5625 0 L 0 0 L 5.28125 -13.390625 L 6.578125 -13.390625 L 11.828125 0 Z M 8.078125 -5.640625 L 6.53125 -9.765625 C 6.320312 -10.296875 6.113281 -10.941406 5.90625 -11.703125 C 5.769531 -11.117188 5.578125 -10.472656 5.328125 -9.765625 L 3.765625 -5.640625 Z M 8.078125 -5.640625 "/></g></g></g><g fill="#ffde59" fill-opacity="1"><g transform="translate(218.163618, 131.641654)"><g/></g></g><g fill="#ffde59" fill-opacity="1"><g transform="translate(223.018683, 131.641654)"><g><path d="M 13.40625 -6.6875 C 13.40625 -4.550781 12.863281 -2.867188 11.78125 -1.640625 C 10.707031 -0.421875 9.210938 0.1875 7.296875 0.1875 C 5.328125 0.1875 3.804688 -0.410156 2.734375 -1.609375 C 1.671875 -2.816406 1.140625 -4.515625 1.140625 -6.703125 C 1.140625 -8.878906 1.675781 -10.5625 2.75 -11.75 C 3.820312 -12.945312 5.34375 -13.546875 7.3125 -13.546875 C 9.226562 -13.546875 10.722656 -12.9375 11.796875 -11.71875 C 12.867188 -10.507812 13.40625 -8.832031 13.40625 -6.6875 Z M 2.78125 -6.6875 C 2.78125 -4.882812 3.164062 -3.515625 3.9375 -2.578125 C 4.707031 -1.640625 5.828125 -1.171875 7.296875 -1.171875 C 8.773438 -1.171875 9.890625 -1.632812 10.640625 -2.5625 C 11.390625 -3.5 11.765625 -4.875 11.765625 -6.6875 C 11.765625 -8.476562 11.390625 -9.835938 10.640625 -10.765625 C 9.890625 -11.691406 8.78125 -12.15625 7.3125 -12.15625 C 5.832031 -12.15625 4.707031 -11.6875 3.9375 -10.75 C 3.164062 -9.820312 2.78125 -8.46875 2.78125 -6.6875 Z M 2.78125 -6.6875 "/></g></g></g><g fill="#ffde59" fill-opacity="1"><g transform="translate(237.574755, 131.641654)"><g/></g></g><g fill="#ffde59" fill-opacity="1"><g transform="translate(242.42982, 131.641654)"><g><path d="M 7.734375 0 L 3.21875 -11.828125 L 3.140625 -11.828125 C 3.222656 -10.890625 3.265625 -9.773438 3.265625 -8.484375 L 3.265625 0 L 1.828125 0 L 1.828125 -13.34375 L 4.171875 -13.34375 L 8.390625 -2.34375 L 8.46875 -2.34375 L 12.734375 -13.34375 L 15.046875 -13.34375 L 15.046875 0 L 13.5 0 L 13.5 -8.59375 C 13.5 -9.582031 13.539062 -10.65625 13.625 -11.8125 L 13.546875 -11.8125 L 8.984375 0 Z M 7.734375 0 "/></g></g></g><g fill="#ffde59" fill-opacity="1"><g transform="translate(259.303912, 131.641654)"><g><path d="M 11.90625 -13.34375 L 11.90625 -4.703125 C 11.90625 -3.179688 11.445312 -1.984375 10.53125 -1.109375 C 9.613281 -0.242188 8.351562 0.1875 6.75 0.1875 C 5.132812 0.1875 3.890625 -0.25 3.015625 -1.125 C 2.140625 -2.007812 1.703125 -3.21875 1.703125 -4.75 L 1.703125 -13.34375 L 3.25 -13.34375 L 3.25 -4.640625 C 3.25 -3.523438 3.550781 -2.664062 4.15625 -2.0625 C 4.769531 -1.46875 5.664062 -1.171875 6.84375 -1.171875 C 7.96875 -1.171875 8.832031 -1.46875 9.4375 -2.0625 C 10.050781 -2.664062 10.359375 -3.53125 10.359375 -4.65625 L 10.359375 -13.34375 Z M 11.90625 -13.34375 "/></g></g></g><g fill="#ffde59" fill-opacity="1"><g transform="translate(272.910872, 131.641654)"><g><path d="M 12.25 0 L 10.484375 0 L 3.1875 -11.203125 L 3.125 -11.203125 C 3.21875 -9.878906 3.265625 -8.671875 3.265625 -7.578125 L 3.265625 0 L 1.828125 0 L 1.828125 -13.34375 L 3.59375 -13.34375 L 10.859375 -2.1875 L 10.9375 -2.1875 C 10.914062 -2.351562 10.882812 -2.878906 10.84375 -3.765625 C 10.800781 -4.660156 10.785156 -5.300781 10.796875 -5.6875 L 10.796875 -13.34375 L 12.25 -13.34375 Z M 12.25 0 "/></g></g></g><g fill="#ffde59" fill-opacity="1"><g transform="translate(287.001514, 131.641654)"><g><path d="M 12.484375 -6.796875 C 12.484375 -4.597656 11.882812 -2.914062 10.6875 -1.75 C 9.488281 -0.582031 7.769531 0 5.53125 0 L 1.828125 0 L 1.828125 -13.34375 L 5.921875 -13.34375 C 7.992188 -13.34375 9.601562 -12.765625 10.75 -11.609375 C 11.90625 -10.460938 12.484375 -8.859375 12.484375 -6.796875 Z M 10.84375 -6.75 C 10.84375 -8.488281 10.40625 -9.796875 9.53125 -10.671875 C 8.65625 -11.554688 7.359375 -12 5.640625 -12 L 3.390625 -12 L 3.390625 -1.34375 L 5.28125 -1.34375 C 7.125 -1.34375 8.507812 -1.796875 9.4375 -2.703125 C 10.375 -3.609375 10.84375 -4.957031 10.84375 -6.75 Z M 10.84375 -6.75 "/></g></g></g><g fill="#ffde59" fill-opacity="1"><g transform="translate(300.626727, 131.641654)"><g><path d="M 13.40625 -6.6875 C 13.40625 -4.550781 12.863281 -2.867188 11.78125 -1.640625 C 10.707031 -0.421875 9.210938 0.1875 7.296875 0.1875 C 5.328125 0.1875 3.804688 -0.410156 2.734375 -1.609375 C 1.671875 -2.816406 1.140625 -4.515625 1.140625 -6.703125 C 1.140625 -8.878906 1.675781 -10.5625 2.75 -11.75 C 3.820312 -12.945312 5.34375 -13.546875 7.3125 -13.546875 C 9.226562 -13.546875 10.722656 -12.9375 11.796875 -11.71875 C 12.867188 -10.507812 13.40625 -8.832031 13.40625 -6.6875 Z M 2.78125 -6.6875 C 2.78125 -4.882812 3.164062 -3.515625 3.9375 -2.578125 C 4.707031 -1.640625 5.828125 -1.171875 7.296875 -1.171875 C 8.773438 -1.171875 9.890625 -1.632812 10.640625 -2.5625 C 11.390625 -3.5 11.765625 -4.875 11.765625 -6.6875 C 11.765625 -8.476562 11.390625 -9.835938 10.640625 -10.765625 C 9.890625 -11.691406 8.78125 -12.15625 7.3125 -12.15625 C 5.832031 -12.15625 4.707031 -11.6875 3.9375 -10.75 C 3.164062 -9.820312 2.78125 -8.46875 2.78125 -6.6875 Z M 2.78125 -6.6875 "/></g></g></g><g fill="#ffde59" fill-opacity="1"><g transform="translate(315.182798, 131.641654)"><g/></g></g><g fill="#ffde59" fill-opacity="1"><g transform="translate(320.037863, 131.641654)"><g><path d="M 10.296875 -9.453125 C 10.296875 -8.097656 9.832031 -7.054688 8.90625 -6.328125 C 7.988281 -5.609375 6.671875 -5.25 4.953125 -5.25 L 3.390625 -5.25 L 3.390625 0 L 1.828125 0 L 1.828125 -13.34375 L 5.296875 -13.34375 C 8.628906 -13.34375 10.296875 -12.046875 10.296875 -9.453125 Z M 3.390625 -6.578125 L 4.78125 -6.578125 C 6.15625 -6.578125 7.148438 -6.796875 7.765625 -7.234375 C 8.378906 -7.679688 8.6875 -8.394531 8.6875 -9.375 C 8.6875 -10.257812 8.394531 -10.914062 7.8125 -11.34375 C 7.238281 -11.78125 6.34375 -12 5.125 -12 L 3.390625 -12 Z M 3.390625 -6.578125 "/></g></g></g><g fill="#ffde59" fill-opacity="1"><g transform="translate(331.2903, 131.641654)"><g><path d="M 5.234375 -6.671875 L 8.78125 -13.34375 L 10.46875 -13.34375 L 6.015625 -5.171875 L 6.015625 0 L 4.4375 0 L 4.4375 -5.09375 L 0 -13.34375 L 1.703125 -13.34375 Z M 5.234375 -6.671875 "/></g></g></g><g fill="#ffde59" fill-opacity="1"><g transform="translate(341.757894, 131.641654)"><g><path d="M 5.9375 0 L 4.390625 0 L 4.390625 -11.96875 L 0.171875 -11.96875 L 0.171875 -13.34375 L 10.171875 -13.34375 L 10.171875 -11.96875 L 5.9375 -11.96875 Z M 5.9375 0 "/></g></g></g><g fill="#ffde59" fill-opacity="1"><g transform="translate(352.097724, 131.641654)"><g><path d="M 11.96875 0 L 10.40625 0 L 10.40625 -6.28125 L 3.390625 -6.28125 L 3.390625 0 L 1.828125 0 L 1.828125 -13.34375 L 3.390625 -13.34375 L 3.390625 -7.671875 L 10.40625 -7.671875 L 10.40625 -13.34375 L 11.96875 -13.34375 Z M 11.96875 0 "/></g></g></g><g fill="#ffde59" fill-opacity="1"><g transform="translate(365.887206, 131.641654)"><g><path d="M 13.40625 -6.6875 C 13.40625 -4.550781 12.863281 -2.867188 11.78125 -1.640625 C 10.707031 -0.421875 9.210938 0.1875 7.296875 0.1875 C 5.328125 0.1875 3.804688 -0.410156 2.734375 -1.609375 C 1.671875 -2.816406 1.140625 -4.515625 1.140625 -6.703125 C 1.140625 -8.878906 1.675781 -10.5625 2.75 -11.75 C 3.820312 -12.945312 5.34375 -13.546875 7.3125 -13.546875 C 9.226562 -13.546875 10.722656 -12.9375 11.796875 -11.71875 C 12.867188 -10.507812 13.40625 -8.832031 13.40625 -6.6875 Z M 2.78125 -6.6875 C 2.78125 -4.882812 3.164062 -3.515625 3.9375 -2.578125 C 4.707031 -1.640625 5.828125 -1.171875 7.296875 -1.171875 C 8.773438 -1.171875 9.890625 -1.632812 10.640625 -2.5625 C 11.390625 -3.5 11.765625 -4.875 11.765625 -6.6875 C 11.765625 -8.476562 11.390625 -9.835938 10.640625 -10.765625 C 9.890625 -11.691406 8.78125 -12.15625 7.3125 -12.15625 C 5.832031 -12.15625 4.707031 -11.6875 3.9375 -10.75 C 3.164062 -9.820312 2.78125 -8.46875 2.78125 -6.6875 Z M 2.78125 -6.6875 "/></g></g></g><g fill="#ffde59" fill-opacity="1"><g transform="translate(380.443277, 131.641654)"><g><path d="M 12.25 0 L 10.484375 0 L 3.1875 -11.203125 L 3.125 -11.203125 C 3.21875 -9.878906 3.265625 -8.671875 3.265625 -7.578125 L 3.265625 0 L 1.828125 0 L 1.828125 -13.34375 L 3.59375 -13.34375 L 10.859375 -2.1875 L 10.9375 -2.1875 C 10.914062 -2.351562 10.882812 -2.878906 10.84375 -3.765625 C 10.800781 -4.660156 10.785156 -5.300781 10.796875 -5.6875 L 10.796875 -13.34375 L 12.25 -13.34375 Z M 12.25 0 "/></g></g></g><g fill="#ffde59" fill-opacity="1"><g transform="translate(394.54776, 131.641654)"><g/></g></g></svg>