<svg xmlns="http://www.w3.org/2000/svg" xmlns:xlink="http://www.w3.org/1999/xlink" width="600" zoomAndPan="magnify" viewBox="0 0 450 149.999998" height="200" preserveAspectRatio="xMidYMid meet" version="1.0"><defs><g/></defs><path fill="#1c2d62" d="M 186.363281 47.328125 C 178.796875 54.523438 168.273438 57.429688 158.199219 58.886719 C 149.207031 60.207031 139.820312 60.761719 131.777344 64.253906 C 123.371094 67.929688 118.082031 74.011719 118.503906 83.425781 C 118.769531 89.085938 121.808594 94.613281 126.09375 98.871094 C 127.285156 99.820312 128.5 100.722656 129.769531 101.539062 C 129.691406 101.382812 129.609375 101.195312 129.476562 101.039062 C 124.375 94.03125 120.40625 73.957031 147.117188 69.59375 C 152.484375 68.722656 157.855469 67.824219 163.195312 66.605469 C 167.902344 65.523438 176.3125 62.878906 177.238281 62.375 C 178.003906 61.925781 172.238281 68.40625 154.574219 73.484375 C 126.515625 81.546875 135.136719 104.847656 143.707031 107.515625 C 146.984375 108.3125 150.421875 108.707031 153.941406 108.707031 C 178.429688 108.707031 198.289062 88.875 198.289062 64.386719 C 198.289062 55.578125 195.722656 47.382812 191.308594 40.503906 C 190.117188 43.097656 188.449219 45.320312 186.363281 47.328125 Z M 186.363281 47.328125 " fill-opacity="1" fill-rule="nonzero"/><path fill="#1c2d62" d="M 109.617188 64.386719 C 109.617188 69.25 110.410156 73.878906 111.839844 78.269531 C 112.367188 73.457031 114.007812 68.90625 117.074219 65.046875 C 122.628906 57.984375 131.25 54.679688 140.214844 52.910156 C 149.152344 51.164062 158.671875 50.953125 167.851562 48.730469 C 172.925781 47.511719 178.085938 45.53125 182.183594 42.277344 C 185.59375 39.527344 187.179688 35.347656 183.636719 31.460938 C 182.34375 30.296875 180.96875 29.1875 179.539062 28.183594 C 182.128906 33.496094 180.121094 41.40625 159.097656 43.46875 C 153.703125 44.023438 148.332031 44.523438 143.019531 45.265625 C 141.457031 45.476562 139.527344 45.769531 137.542969 46.113281 C 137.542969 46.113281 139.289062 43.945312 151.613281 41.140625 C 176.945312 35.429688 172.214844 24.402344 164.703125 21.359375 C 161.265625 20.511719 157.640625 20.039062 153.941406 20.039062 C 129.453125 20.0625 109.617188 39.898438 109.617188 64.386719 Z M 109.617188 64.386719 " fill-opacity="1" fill-rule="nonzero"/><g fill="#1c2d62" fill-opacity="1"><g transform="translate(209.139791, 102.311203)"><g><path d="M 13.15625 -77.8125 C 19.382812 -77.8125 22.5 -74.59375 22.5 -68.15625 L 22.5 -56.484375 C 22.5 -53.597656 22.273438 -51.207031 21.828125 -49.3125 C 21.378906 -47.425781 20.671875 -45.609375 19.703125 -43.859375 C 18.734375 -42.109375 17.132812 -39.679688 14.90625 -36.578125 C 12.632812 -33.460938 11.148438 -31.097656 10.453125 -29.484375 C 9.765625 -27.878906 9.421875 -25.800781 9.421875 -23.25 L 9.421875 0 L 2.5 0 L 2.5 -77.8125 Z M 9.421875 -70.90625 L 9.421875 -40.90625 C 9.921875 -41.570312 10.195312 -41.929688 10.25 -41.984375 C 12.46875 -45.046875 13.910156 -47.410156 14.578125 -49.078125 C 15.242188 -50.742188 15.578125 -52.90625 15.578125 -55.5625 L 15.578125 -67.3125 C 15.578125 -68.425781 15.351562 -69.300781 14.90625 -69.9375 C 14.46875 -70.582031 13.664062 -70.90625 12.5 -70.90625 Z M 9.421875 -70.90625 "/></g></g></g><g fill="#1c2d62" fill-opacity="1"><g transform="translate(234.13242, 102.311203)"><g><path d="M 22.15625 -77.8125 L 22.15625 0 L 15.25 0 L 15.25 -23.328125 C 15.25 -25.773438 14.898438 -27.816406 14.203125 -29.453125 C 13.503906 -31.085938 12.046875 -33.429688 9.828125 -36.484375 C 7.609375 -39.546875 6 -41.960938 5 -43.734375 C 4 -45.515625 3.289062 -47.347656 2.875 -49.234375 C 2.457031 -51.128906 2.25 -53.519531 2.25 -56.40625 L 2.25 -77.8125 L 9.171875 -77.8125 L 9.171875 -55.5625 C 9.171875 -52.90625 9.5 -50.726562 10.15625 -49.03125 C 10.820312 -47.332031 12.269531 -44.957031 14.5 -41.90625 L 15.25 -40.828125 L 15.25 -77.8125 Z M 22.15625 -77.8125 "/></g></g></g><g fill="#1c2d62" fill-opacity="1"><g transform="translate(258.791822, 102.311203)"><g><path d="M 22.40625 -70.90625 L 15.90625 -70.90625 L 15.90625 0 L 9 0 L 9 -70.90625 L 2.5 -70.90625 L 2.5 -77.8125 L 22.40625 -77.8125 Z M 22.40625 -70.90625 "/></g></g></g><g fill="#1c2d62" fill-opacity="1"><g transform="translate(283.70115, 102.311203)"><g><path d="M 2.5 -77.8125 L 2.5 0 L 9.328125 0 L 9.421875 -23.25 C 9.421875 -25.800781 9.765625 -27.894531 10.453125 -29.53125 C 11.148438 -31.164062 12.609375 -33.515625 14.828125 -36.578125 L 15.5 -37.484375 L 15.5 0 L 22.40625 0 L 22.40625 -77.8125 L 15.5 -77.8125 L 15.5 -55.5625 C 15.5 -52.90625 15.164062 -50.742188 14.5 -49.078125 C 13.832031 -47.410156 12.390625 -45.046875 10.171875 -41.984375 C 9.671875 -41.316406 9.390625 -40.957031 9.328125 -40.90625 L 9.328125 -77.8125 Z M 2.5 -77.8125 "/></g></g></g><g fill="#1c2d62" fill-opacity="1"><g transform="translate(308.693778, 102.311203)"><g><path d="M 13.078125 -78.890625 C 19.296875 -78.890625 22.40625 -75.695312 22.40625 -69.3125 L 22.40625 -9.578125 C 22.40625 -3.191406 19.296875 0 13.078125 0 L 16.75 0 L 11.828125 0 C 8.492188 0 6.101562 -0.84375 4.65625 -2.53125 C 3.21875 -4.226562 2.5 -6.578125 2.5 -9.578125 L 2.5 -69.3125 C 2.5 -72.363281 3.21875 -74.722656 4.65625 -76.390625 C 6.101562 -78.054688 8.492188 -78.890625 11.828125 -78.890625 L 15.90625 -78.890625 Z M 15.5 -68.40625 C 15.5 -69.507812 15.273438 -70.378906 14.828125 -71.015625 C 14.378906 -71.660156 13.570312 -71.984375 12.40625 -71.984375 C 11.238281 -71.984375 10.445312 -71.660156 10.03125 -71.015625 C 9.625 -70.378906 9.421875 -69.507812 9.421875 -68.40625 L 9.421875 -10.5 C 9.421875 -9.382812 9.625 -8.507812 10.03125 -7.875 C 10.445312 -7.238281 11.238281 -6.921875 12.40625 -6.921875 C 13.570312 -6.921875 14.378906 -7.238281 14.828125 -7.875 C 15.273438 -8.507812 15.5 -9.382812 15.5 -10.5 Z M 15.5 -68.40625 "/></g></g></g><g fill="#1c2d62" fill-opacity="1"><g transform="translate(333.603106, 102.311203)"><g><path d="M 22.40625 -77.8125 L 22.40625 0 L 15.65625 0 L 9.078125 -42.734375 L 9.078125 0 L 2.5 0 L 2.5 -77.8125 L 9.078125 -77.8125 L 15.65625 -35.734375 L 15.65625 -77.8125 Z M 22.40625 -77.8125 "/></g></g></g><g fill="#1c2d62" fill-opacity="1"><g transform="translate(358.512434, 102.311203)"><g/></g></g><g fill="#1c2d62" fill-opacity="1"><g transform="translate(375.174194, 102.311203)"><g><path d="M 13.15625 -77.8125 C 19.382812 -77.8125 22.5 -74.59375 22.5 -68.15625 L 22.5 -56.484375 C 22.5 -53.597656 22.273438 -51.207031 21.828125 -49.3125 C 21.378906 -47.425781 20.671875 -45.609375 19.703125 -43.859375 C 18.734375 -42.109375 17.132812 -39.679688 14.90625 -36.578125 C 12.632812 -33.460938 11.148438 -31.097656 10.453125 -29.484375 C 9.765625 -27.878906 9.421875 -25.800781 9.421875 -23.25 L 9.421875 0 L 2.5 0 L 2.5 -77.8125 Z M 9.421875 -70.90625 L 9.421875 -40.90625 C 9.921875 -41.570312 10.195312 -41.929688 10.25 -41.984375 C 12.46875 -45.046875 13.910156 -47.410156 14.578125 -49.078125 C 15.242188 -50.742188 15.578125 -52.90625 15.578125 -55.5625 L 15.578125 -67.3125 C 15.578125 -68.425781 15.351562 -69.300781 14.90625 -69.9375 C 14.46875 -70.582031 13.664062 -70.90625 12.5 -70.90625 Z M 9.421875 -70.90625 "/></g></g></g><g fill="#1c2d62" fill-opacity="1"><g transform="translate(400.166822, 102.311203)"><g><path d="M 22.40625 0 L 15.578125 0 L 15.5 -23.828125 C 15.5 -25.828125 15.300781 -27.503906 14.90625 -28.859375 C 14.519531 -30.222656 13.769531 -31.738281 12.65625 -33.40625 C 11.382812 -31.46875 10.523438 -29.773438 10.078125 -28.328125 C 9.640625 -26.878906 9.421875 -25.019531 9.421875 -22.75 L 9.421875 0 L 2.5 0 L 2.5 -77.8125 L 13.078125 -77.8125 C 19.296875 -77.8125 22.40625 -74.59375 22.40625 -68.15625 L 22.40625 -56.15625 C 22.40625 -52.488281 22.046875 -49.570312 21.328125 -47.40625 C 20.609375 -45.238281 19.164062 -42.597656 17 -39.484375 C 19.101562 -36.484375 20.53125 -33.914062 21.28125 -31.78125 C 22.03125 -29.644531 22.40625 -26.828125 22.40625 -23.328125 Z M 15.5 -67.3125 C 15.5 -68.425781 15.289062 -69.300781 14.875 -69.9375 C 14.457031 -70.582031 13.664062 -70.90625 12.5 -70.90625 L 9.421875 -70.90625 L 9.421875 -40.90625 C 9.585938 -41.070312 9.710938 -41.238281 9.796875 -41.40625 C 9.878906 -41.570312 9.972656 -41.710938 10.078125 -41.828125 C 12.296875 -44.878906 13.753906 -47.222656 14.453125 -48.859375 C 15.148438 -50.503906 15.5 -52.601562 15.5 -55.15625 Z M 15.5 -67.3125 "/></g></g></g><g fill="#1c2d62" fill-opacity="1"><g transform="translate(425.07615, 102.311203)"><g><path d="M 13.078125 -78.890625 C 19.296875 -78.890625 22.40625 -75.695312 22.40625 -69.3125 L 22.40625 -9.578125 C 22.40625 -3.191406 19.296875 0 13.078125 0 L 16.75 0 L 11.828125 0 C 8.492188 0 6.101562 -0.84375 4.65625 -2.53125 C 3.21875 -4.226562 2.5 -6.578125 2.5 -9.578125 L 2.5 -69.3125 C 2.5 -72.363281 3.21875 -74.722656 4.65625 -76.390625 C 6.101562 -78.054688 8.492188 -78.890625 11.828125 -78.890625 L 15.90625 -78.890625 Z M 15.5 -68.40625 C 15.5 -69.507812 15.273438 -70.378906 14.828125 -71.015625 C 14.378906 -71.660156 13.570312 -71.984375 12.40625 -71.984375 C 11.238281 -71.984375 10.445312 -71.660156 10.03125 -71.015625 C 9.625 -70.378906 9.421875 -69.507812 9.421875 -68.40625 L 9.421875 -10.5 C 9.421875 -9.382812 9.625 -8.507812 10.03125 -7.875 C 10.445312 -7.238281 11.238281 -6.921875 12.40625 -6.921875 C 13.570312 -6.921875 14.378906 -7.238281 14.828125 -7.875 C 15.273438 -8.507812 15.5 -9.382812 15.5 -10.5 Z M 15.5 -68.40625 "/></g></g></g><g fill="#1c2d62" fill-opacity="1"><g transform="translate(0.310532, 96.57264)"><g><path d="M 14.894531 -23.460938 L 14.894531 -7.753906 C 14.894531 -4.761719 14.214844 -2.175781 10.066406 -2.175781 C 5.984375 -2.175781 5.304688 -4.761719 5.304688 -7.753906 L 5.304688 -55.835938 C 5.304688 -58.894531 5.984375 -61.410156 10.066406 -61.410156 C 14.144531 -61.410156 14.894531 -58.828125 14.894531 -55.835938 L 14.894531 -40.191406 L 17.410156 -40.191406 L 17.410156 -56.921875 C 17.410156 -61.070312 15.710938 -63.996094 10.542969 -63.996094 L 9.589844 -63.996094 C 4.421875 -63.996094 2.71875 -61.070312 2.71875 -57.601562 L 2.71875 -7.34375 C 2.71875 -2.515625 4.488281 0.40625 9.589844 0.40625 L 10.542969 0.40625 C 15.777344 0.40625 17.410156 -2.515625 17.410156 -6.664062 L 17.410156 -23.460938 Z M 14.894531 -23.460938 "/></g></g></g><g fill="#1c2d62" fill-opacity="1"><g transform="translate(20.440254, 96.57264)"><g><path d="M 14.894531 -63.519531 L 14.894531 -7.753906 C 14.894531 -4.761719 14.214844 -2.175781 10.132812 -2.175781 C 5.984375 -2.175781 5.304688 -4.761719 5.304688 -7.753906 L 5.304688 -63.519531 L 2.71875 -63.519531 L 2.71875 -7.34375 C 2.71875 -2.515625 4.488281 0.40625 9.589844 0.40625 L 10.542969 0.40625 C 15.777344 0.40625 17.476562 -2.515625 17.476562 -6.664062 L 17.476562 -63.519531 Z M 14.894531 -63.519531 "/></g></g></g><g fill="#1c2d62" fill-opacity="1"><g transform="translate(40.637983, 96.57264)"><g><path d="M 11.628906 -32.03125 C 15.4375 -37.539062 17.476562 -40.058594 17.476562 -46.3125 L 17.476562 -56.445312 C 17.476562 -60.59375 15.777344 -63.519531 10.542969 -63.519531 L 2.71875 -63.519531 L 2.71875 0 L 5.304688 0 L 5.304688 -18.972656 C 5.304688 -22.988281 7.683594 -26.386719 10.066406 -29.789062 C 12.445312 -26.386719 14.894531 -22.988281 14.894531 -18.972656 L 14.894531 0 L 17.476562 0 L 17.476562 -18.363281 C 17.476562 -23.9375 15.507812 -26.523438 11.628906 -32.03125 Z M 5.304688 -27.269531 L 5.304688 -60.933594 L 10.132812 -60.933594 C 14.214844 -60.933594 14.894531 -58.351562 14.894531 -55.359375 L 14.894531 -45.566406 C 14.894531 -41.347656 12.988281 -38.425781 9.65625 -33.597656 C 7.820312 -31.011719 6.394531 -29.039062 5.304688 -27.269531 Z M 5.304688 -27.269531 "/></g></g></g><g fill="#1c2d62" fill-opacity="1"><g transform="translate(60.835713, 96.57264)"><g><path d="M 17.476562 -18.363281 C 17.476562 -24.484375 15.164062 -26.929688 10.542969 -33.597656 C 7.140625 -38.492188 5.238281 -41.347656 5.304688 -45.632812 L 5.304688 -55.835938 C 5.304688 -58.828125 5.984375 -61.410156 10.066406 -61.410156 C 14.144531 -61.410156 14.894531 -58.828125 14.894531 -55.835938 L 14.894531 -40.191406 L 17.476562 -40.191406 L 17.476562 -56.921875 C 17.476562 -61.070312 15.710938 -63.996094 10.542969 -63.996094 L 9.589844 -63.996094 C 4.421875 -63.996094 2.71875 -61.070312 2.71875 -56.921875 L 2.71875 -46.3125 C 2.71875 -39.71875 4.964844 -37.269531 9.316406 -30.945312 C 11.902344 -27.203125 14.894531 -23.460938 14.894531 -19.042969 L 14.894531 -7.753906 C 14.894531 -4.761719 14.214844 -2.175781 10.132812 -2.175781 C 5.984375 -2.175781 5.304688 -4.761719 5.304688 -7.753906 L 5.304688 -23.257812 L 2.71875 -23.257812 L 2.71875 -6.664062 C 2.71875 -2.515625 4.488281 0.40625 9.589844 0.40625 L 10.542969 0.40625 C 15.777344 0.40625 17.476562 -2.515625 17.476562 -6.664062 Z M 17.476562 -18.363281 "/></g></g></g><g fill="#1c2d62" fill-opacity="1"><g transform="translate(81.033443, 96.57264)"><g><path d="M 17.476562 -56.921875 C 17.476562 -61.070312 15.710938 -63.996094 10.542969 -63.996094 L 9.65625 -63.996094 C 4.421875 -63.996094 2.71875 -61.070312 2.71875 -57.601562 L 2.71875 -7.34375 C 2.71875 -2.515625 4.488281 0.40625 9.589844 0.40625 L 10.542969 0.40625 C 15.777344 0.40625 17.476562 -2.515625 17.476562 -6.664062 Z M 14.894531 -7.753906 C 14.894531 -4.761719 14.214844 -2.175781 10.132812 -2.175781 C 5.984375 -2.175781 5.304688 -4.761719 5.304688 -7.753906 L 5.304688 -55.835938 C 5.304688 -58.828125 5.984375 -61.410156 10.066406 -61.410156 C 14.214844 -61.410156 14.894531 -58.828125 14.894531 -55.835938 Z M 14.894531 -7.753906 "/></g></g></g><g fill="#1c2d62" fill-opacity="1"><g transform="translate(50.819653, 132.013113)"><g><path d="M 9.5625 -3.703125 C 9.5625 -2.503906 9.125 -1.554688 8.25 -0.859375 C 7.382812 -0.160156 6.179688 0.1875 4.640625 0.1875 C 3.210938 0.1875 1.953125 -0.0820312 0.859375 -0.625 L 0.859375 -3.25 C 1.753906 -2.84375 2.515625 -2.554688 3.140625 -2.390625 C 3.765625 -2.234375 4.335938 -2.15625 4.859375 -2.15625 C 5.484375 -2.15625 5.957031 -2.273438 6.28125 -2.515625 C 6.613281 -2.753906 6.78125 -3.109375 6.78125 -3.578125 C 6.78125 -3.835938 6.707031 -4.066406 6.5625 -4.265625 C 6.414062 -4.472656 6.203125 -4.671875 5.921875 -4.859375 C 5.640625 -5.046875 5.0625 -5.347656 4.1875 -5.765625 C 3.375 -6.148438 2.765625 -6.515625 2.359375 -6.859375 C 1.953125 -7.210938 1.625 -7.625 1.375 -8.09375 C 1.132812 -8.5625 1.015625 -9.113281 1.015625 -9.75 C 1.015625 -10.925781 1.414062 -11.851562 2.21875 -12.53125 C 3.019531 -13.207031 4.125 -13.546875 5.53125 -13.546875 C 6.226562 -13.546875 6.890625 -13.460938 7.515625 -13.296875 C 8.148438 -13.128906 8.8125 -12.898438 9.5 -12.609375 L 8.578125 -10.40625 C 7.867188 -10.695312 7.28125 -10.898438 6.8125 -11.015625 C 6.351562 -11.128906 5.894531 -11.1875 5.4375 -11.1875 C 4.90625 -11.1875 4.492188 -11.0625 4.203125 -10.8125 C 3.921875 -10.5625 3.78125 -10.234375 3.78125 -9.828125 C 3.78125 -9.585938 3.835938 -9.375 3.953125 -9.1875 C 4.066406 -9 4.25 -8.816406 4.5 -8.640625 C 4.757812 -8.472656 5.359375 -8.160156 6.296875 -7.703125 C 7.546875 -7.109375 8.398438 -6.507812 8.859375 -5.90625 C 9.328125 -5.3125 9.5625 -4.578125 9.5625 -3.703125 Z M 9.5625 -3.703125 "/></g></g></g><g fill="#1c2d62" fill-opacity="1"><g transform="translate(61.114528, 132.013113)"><g><path d="M 9.375 0 L 1.6875 0 L 1.6875 -13.34375 L 9.375 -13.34375 L 9.375 -11.03125 L 4.515625 -11.03125 L 4.515625 -8.09375 L 9.03125 -8.09375 L 9.03125 -5.78125 L 4.515625 -5.78125 L 4.515625 -2.34375 L 9.375 -2.34375 Z M 9.375 0 "/></g></g></g><g fill="#1c2d62" fill-opacity="1"><g transform="translate(71.582816, 132.013113)"><g><path d="M 12.546875 -13.34375 L 12.546875 -4.71875 C 12.546875 -3.726562 12.320312 -2.859375 11.875 -2.109375 C 11.4375 -1.367188 10.800781 -0.800781 9.96875 -0.40625 C 9.132812 -0.0078125 8.148438 0.1875 7.015625 0.1875 C 5.296875 0.1875 3.960938 -0.25 3.015625 -1.125 C 2.066406 -2.007812 1.59375 -3.21875 1.59375 -4.75 L 1.59375 -13.34375 L 4.40625 -13.34375 L 4.40625 -5.171875 C 4.40625 -4.148438 4.613281 -3.394531 5.03125 -2.90625 C 5.445312 -2.425781 6.132812 -2.1875 7.09375 -2.1875 C 8.007812 -2.1875 8.675781 -2.425781 9.09375 -2.90625 C 9.507812 -3.394531 9.71875 -4.160156 9.71875 -5.203125 L 9.71875 -13.34375 Z M 12.546875 -13.34375 "/></g></g></g><g fill="#1c2d62" fill-opacity="1"><g transform="translate(85.71089, 132.013113)"><g/></g></g><g fill="#1c2d62" fill-opacity="1"><g transform="translate(90.566275, 132.013113)"><g><path d="M 4.515625 -7.0625 L 5.4375 -7.0625 C 6.3125 -7.0625 6.960938 -7.234375 7.390625 -7.578125 C 7.828125 -7.921875 8.046875 -8.425781 8.046875 -9.09375 C 8.046875 -9.75 7.863281 -10.234375 7.5 -10.546875 C 7.132812 -10.867188 6.566406 -11.03125 5.796875 -11.03125 L 4.515625 -11.03125 Z M 10.90625 -9.1875 C 10.90625 -7.75 10.453125 -6.648438 9.546875 -5.890625 C 8.648438 -5.128906 7.375 -4.75 5.71875 -4.75 L 4.515625 -4.75 L 4.515625 0 L 1.6875 0 L 1.6875 -13.34375 L 5.9375 -13.34375 C 7.5625 -13.34375 8.796875 -12.992188 9.640625 -12.296875 C 10.484375 -11.609375 10.90625 -10.570312 10.90625 -9.1875 Z M 10.90625 -9.1875 "/></g></g></g><g fill="#1c2d62" fill-opacity="1"><g transform="translate(102.303163, 132.013113)"><g><path d="M 13.796875 -6.6875 C 13.796875 -4.476562 13.25 -2.78125 12.15625 -1.59375 C 11.0625 -0.40625 9.488281 0.1875 7.4375 0.1875 C 5.394531 0.1875 3.828125 -0.40625 2.734375 -1.59375 C 1.640625 -2.78125 1.09375 -4.488281 1.09375 -6.71875 C 1.09375 -8.9375 1.640625 -10.628906 2.734375 -11.796875 C 3.835938 -12.972656 5.414062 -13.5625 7.46875 -13.5625 C 9.507812 -13.5625 11.070312 -12.96875 12.15625 -11.78125 C 13.25 -10.601562 13.796875 -8.90625 13.796875 -6.6875 Z M 4.0625 -6.6875 C 4.0625 -5.195312 4.34375 -4.070312 4.90625 -3.3125 C 5.46875 -2.5625 6.3125 -2.1875 7.4375 -2.1875 C 9.695312 -2.1875 10.828125 -3.6875 10.828125 -6.6875 C 10.828125 -9.695312 9.707031 -11.203125 7.46875 -11.203125 C 6.332031 -11.203125 5.476562 -10.820312 4.90625 -10.0625 C 4.34375 -9.3125 4.0625 -8.1875 4.0625 -6.6875 Z M 4.0625 -6.6875 "/></g></g></g><g fill="#1c2d62" fill-opacity="1"><g transform="translate(117.179623, 132.013113)"><g><path d="M 4.515625 -7.421875 L 5.421875 -7.421875 C 6.316406 -7.421875 6.976562 -7.566406 7.40625 -7.859375 C 7.832031 -8.160156 8.046875 -8.632812 8.046875 -9.28125 C 8.046875 -9.914062 7.828125 -10.363281 7.390625 -10.625 C 6.953125 -10.894531 6.28125 -11.03125 5.375 -11.03125 L 4.515625 -11.03125 Z M 4.515625 -5.125 L 4.515625 0 L 1.6875 0 L 1.6875 -13.34375 L 5.578125 -13.34375 C 7.390625 -13.34375 8.726562 -13.015625 9.59375 -12.359375 C 10.46875 -11.703125 10.90625 -10.703125 10.90625 -9.359375 C 10.90625 -8.566406 10.6875 -7.863281 10.25 -7.25 C 9.820312 -6.644531 9.210938 -6.164062 8.421875 -5.8125 C 10.429688 -2.8125 11.738281 -0.875 12.34375 0 L 9.203125 0 L 6.015625 -5.125 Z M 4.515625 -5.125 "/></g></g></g><g fill="#1c2d62" fill-opacity="1"><g transform="translate(129.518871, 132.013113)"><g><path d="M 6.828125 0 L 4 0 L 4 -11 L 0.375 -11 L 0.375 -13.34375 L 10.453125 -13.34375 L 10.453125 -11 L 6.828125 -11 Z M 6.828125 0 "/></g></g></g><g fill="#1c2d62" fill-opacity="1"><g transform="translate(140.343093, 132.013113)"><g><path d="M 9.859375 0 L 8.890625 -3.171875 L 4.015625 -3.171875 L 3.046875 0 L 0 0 L 4.71875 -13.40625 L 8.171875 -13.40625 L 12.90625 0 Z M 8.203125 -5.546875 C 7.316406 -8.429688 6.816406 -10.0625 6.703125 -10.4375 C 6.585938 -10.8125 6.503906 -11.109375 6.453125 -11.328125 C 6.253906 -10.554688 5.679688 -8.628906 4.734375 -5.546875 Z M 8.203125 -5.546875 "/></g></g></g><g fill="#1c2d62" fill-opacity="1"><g transform="translate(153.239073, 132.013113)"><g><path d="M 1.6875 0 L 1.6875 -13.34375 L 4.515625 -13.34375 L 4.515625 -2.34375 L 9.921875 -2.34375 L 9.921875 0 Z M 1.6875 0 "/></g></g></g><g fill="#1c2d62" fill-opacity="1"><g transform="translate(163.798627, 132.013113)"><g/></g></g><g fill="#1c2d62" fill-opacity="1"><g transform="translate(168.654012, 132.013113)"><g><path d="M 4.515625 -7.0625 L 5.4375 -7.0625 C 6.3125 -7.0625 6.960938 -7.234375 7.390625 -7.578125 C 7.828125 -7.921875 8.046875 -8.425781 8.046875 -9.09375 C 8.046875 -9.75 7.863281 -10.234375 7.5 -10.546875 C 7.132812 -10.867188 6.566406 -11.03125 5.796875 -11.03125 L 4.515625 -11.03125 Z M 10.90625 -9.1875 C 10.90625 -7.75 10.453125 -6.648438 9.546875 -5.890625 C 8.648438 -5.128906 7.375 -4.75 5.71875 -4.75 L 4.515625 -4.75 L 4.515625 0 L 1.6875 0 L 1.6875 -13.34375 L 5.9375 -13.34375 C 7.5625 -13.34375 8.796875 -12.992188 9.640625 -12.296875 C 10.484375 -11.609375 10.90625 -10.570312 10.90625 -9.1875 Z M 10.90625 -9.1875 "/></g></g></g><g fill="#1c2d62" fill-opacity="1"><g transform="translate(180.3909, 132.013113)"><g><path d="M 9.859375 0 L 8.890625 -3.171875 L 4.015625 -3.171875 L 3.046875 0 L 0 0 L 4.71875 -13.40625 L 8.171875 -13.40625 L 12.90625 0 Z M 8.203125 -5.546875 C 7.316406 -8.429688 6.816406 -10.0625 6.703125 -10.4375 C 6.585938 -10.8125 6.503906 -11.109375 6.453125 -11.328125 C 6.253906 -10.554688 5.679688 -8.628906 4.734375 -5.546875 Z M 8.203125 -5.546875 "/></g></g></g><g fill="#1c2d62" fill-opacity="1"><g transform="translate(193.28688, 132.013113)"><g><path d="M 4.515625 -7.421875 L 5.421875 -7.421875 C 6.316406 -7.421875 6.976562 -7.566406 7.40625 -7.859375 C 7.832031 -8.160156 8.046875 -8.632812 8.046875 -9.28125 C 8.046875 -9.914062 7.828125 -10.363281 7.390625 -10.625 C 6.953125 -10.894531 6.28125 -11.03125 5.375 -11.03125 L 4.515625 -11.03125 Z M 4.515625 -5.125 L 4.515625 0 L 1.6875 0 L 1.6875 -13.34375 L 5.578125 -13.34375 C 7.390625 -13.34375 8.726562 -13.015625 9.59375 -12.359375 C 10.46875 -11.703125 10.90625 -10.703125 10.90625 -9.359375 C 10.90625 -8.566406 10.6875 -7.863281 10.25 -7.25 C 9.820312 -6.644531 9.210938 -6.164062 8.421875 -5.8125 C 10.429688 -2.8125 11.738281 -0.875 12.34375 0 L 9.203125 0 L 6.015625 -5.125 Z M 4.515625 -5.125 "/></g></g></g><g fill="#1c2d62" fill-opacity="1"><g transform="translate(205.626128, 132.013113)"><g><path d="M 9.859375 0 L 8.890625 -3.171875 L 4.015625 -3.171875 L 3.046875 0 L 0 0 L 4.71875 -13.40625 L 8.171875 -13.40625 L 12.90625 0 Z M 8.203125 -5.546875 C 7.316406 -8.429688 6.816406 -10.0625 6.703125 -10.4375 C 6.585938 -10.8125 6.503906 -11.109375 6.453125 -11.328125 C 6.253906 -10.554688 5.679688 -8.628906 4.734375 -5.546875 Z M 8.203125 -5.546875 "/></g></g></g><g fill="#1c2d62" fill-opacity="1"><g transform="translate(218.522108, 132.013113)"><g/></g></g><g fill="#1c2d62" fill-opacity="1"><g transform="translate(223.377492, 132.013113)"><g><path d="M 13.796875 -6.6875 C 13.796875 -4.476562 13.25 -2.78125 12.15625 -1.59375 C 11.0625 -0.40625 9.488281 0.1875 7.4375 0.1875 C 5.394531 0.1875 3.828125 -0.40625 2.734375 -1.59375 C 1.640625 -2.78125 1.09375 -4.488281 1.09375 -6.71875 C 1.09375 -8.9375 1.640625 -10.628906 2.734375 -11.796875 C 3.835938 -12.972656 5.414062 -13.5625 7.46875 -13.5625 C 9.507812 -13.5625 11.070312 -12.96875 12.15625 -11.78125 C 13.25 -10.601562 13.796875 -8.90625 13.796875 -6.6875 Z M 4.0625 -6.6875 C 4.0625 -5.195312 4.34375 -4.070312 4.90625 -3.3125 C 5.46875 -2.5625 6.3125 -2.1875 7.4375 -2.1875 C 9.695312 -2.1875 10.828125 -3.6875 10.828125 -6.6875 C 10.828125 -9.695312 9.707031 -11.203125 7.46875 -11.203125 C 6.332031 -11.203125 5.476562 -10.820312 4.90625 -10.0625 C 4.34375 -9.3125 4.0625 -8.1875 4.0625 -6.6875 Z M 4.0625 -6.6875 "/></g></g></g><g fill="#1c2d62" fill-opacity="1"><g transform="translate(238.253952, 132.013113)"><g/></g></g><g fill="#1c2d62" fill-opacity="1"><g transform="translate(243.109337, 132.013113)"><g><path d="M 7.328125 0 L 4.125 -10.46875 L 4.03125 -10.46875 C 4.144531 -8.34375 4.203125 -6.921875 4.203125 -6.203125 L 4.203125 0 L 1.6875 0 L 1.6875 -13.34375 L 5.53125 -13.34375 L 8.6875 -3.140625 L 8.75 -3.140625 L 12.09375 -13.34375 L 15.953125 -13.34375 L 15.953125 0 L 13.3125 0 L 13.3125 -6.3125 C 13.3125 -6.613281 13.316406 -6.957031 13.328125 -7.34375 C 13.335938 -7.738281 13.378906 -8.773438 13.453125 -10.453125 L 13.375 -10.453125 L 9.921875 0 Z M 7.328125 0 "/></g></g></g><g fill="#1c2d62" fill-opacity="1"><g transform="translate(260.732939, 132.013113)"><g><path d="M 12.546875 -13.34375 L 12.546875 -4.71875 C 12.546875 -3.726562 12.320312 -2.859375 11.875 -2.109375 C 11.4375 -1.367188 10.800781 -0.800781 9.96875 -0.40625 C 9.132812 -0.0078125 8.148438 0.1875 7.015625 0.1875 C 5.296875 0.1875 3.960938 -0.25 3.015625 -1.125 C 2.066406 -2.007812 1.59375 -3.21875 1.59375 -4.75 L 1.59375 -13.34375 L 4.40625 -13.34375 L 4.40625 -5.171875 C 4.40625 -4.148438 4.613281 -3.394531 5.03125 -2.90625 C 5.445312 -2.425781 6.132812 -2.1875 7.09375 -2.1875 C 8.007812 -2.1875 8.675781 -2.425781 9.09375 -2.90625 C 9.507812 -3.394531 9.71875 -4.160156 9.71875 -5.203125 L 9.71875 -13.34375 Z M 12.546875 -13.34375 "/></g></g></g><g fill="#1c2d62" fill-opacity="1"><g transform="translate(274.861013, 132.013113)"><g><path d="M 13.53125 0 L 9.921875 0 L 4.125 -10.09375 L 4.03125 -10.09375 C 4.144531 -8.3125 4.203125 -7.039062 4.203125 -6.28125 L 4.203125 0 L 1.6875 0 L 1.6875 -13.34375 L 5.25 -13.34375 L 11.046875 -3.359375 L 11.109375 -3.359375 C 11.023438 -5.085938 10.984375 -6.3125 10.984375 -7.03125 L 10.984375 -13.34375 L 13.53125 -13.34375 Z M 13.53125 0 "/></g></g></g><g fill="#1c2d62" fill-opacity="1"><g transform="translate(290.056912, 132.013113)"><g><path d="M 12.765625 -6.796875 C 12.765625 -4.597656 12.132812 -2.914062 10.875 -1.75 C 9.625 -0.582031 7.820312 0 5.46875 0 L 1.6875 0 L 1.6875 -13.34375 L 5.875 -13.34375 C 8.050781 -13.34375 9.742188 -12.769531 10.953125 -11.625 C 12.160156 -10.476562 12.765625 -8.867188 12.765625 -6.796875 Z M 9.8125 -6.734375 C 9.8125 -9.597656 8.546875 -11.03125 6.015625 -11.03125 L 4.515625 -11.03125 L 4.515625 -2.34375 L 5.71875 -2.34375 C 8.445312 -2.34375 9.8125 -3.804688 9.8125 -6.734375 Z M 9.8125 -6.734375 "/></g></g></g><g fill="#1c2d62" fill-opacity="1"><g transform="translate(303.892933, 132.013113)"><g><path d="M 13.796875 -6.6875 C 13.796875 -4.476562 13.25 -2.78125 12.15625 -1.59375 C 11.0625 -0.40625 9.488281 0.1875 7.4375 0.1875 C 5.394531 0.1875 3.828125 -0.40625 2.734375 -1.59375 C 1.640625 -2.78125 1.09375 -4.488281 1.09375 -6.71875 C 1.09375 -8.9375 1.640625 -10.628906 2.734375 -11.796875 C 3.835938 -12.972656 5.414062 -13.5625 7.46875 -13.5625 C 9.507812 -13.5625 11.070312 -12.96875 12.15625 -11.78125 C 13.25 -10.601562 13.796875 -8.90625 13.796875 -6.6875 Z M 4.0625 -6.6875 C 4.0625 -5.195312 4.34375 -4.070312 4.90625 -3.3125 C 5.46875 -2.5625 6.3125 -2.1875 7.4375 -2.1875 C 9.695312 -2.1875 10.828125 -3.6875 10.828125 -6.6875 C 10.828125 -9.695312 9.707031 -11.203125 7.46875 -11.203125 C 6.332031 -11.203125 5.476562 -10.820312 4.90625 -10.0625 C 4.34375 -9.3125 4.0625 -8.1875 4.0625 -6.6875 Z M 4.0625 -6.6875 "/></g></g></g><g fill="#1c2d62" fill-opacity="1"><g transform="translate(318.769405, 132.013113)"><g/></g></g><g fill="#1c2d62" fill-opacity="1"><g transform="translate(323.624789, 132.013113)"><g><path d="M 4.515625 -7.0625 L 5.4375 -7.0625 C 6.3125 -7.0625 6.960938 -7.234375 7.390625 -7.578125 C 7.828125 -7.921875 8.046875 -8.425781 8.046875 -9.09375 C 8.046875 -9.75 7.863281 -10.234375 7.5 -10.546875 C 7.132812 -10.867188 6.566406 -11.03125 5.796875 -11.03125 L 4.515625 -11.03125 Z M 10.90625 -9.1875 C 10.90625 -7.75 10.453125 -6.648438 9.546875 -5.890625 C 8.648438 -5.128906 7.375 -4.75 5.71875 -4.75 L 4.515625 -4.75 L 4.515625 0 L 1.6875 0 L 1.6875 -13.34375 L 5.9375 -13.34375 C 7.5625 -13.34375 8.796875 -12.992188 9.640625 -12.296875 C 10.484375 -11.609375 10.90625 -10.570312 10.90625 -9.1875 Z M 10.90625 -9.1875 "/></g></g></g><g fill="#1c2d62" fill-opacity="1"><g transform="translate(335.361689, 132.013113)"><g><path d="M 5.828125 -7.859375 L 8.625 -13.34375 L 11.671875 -13.34375 L 7.234375 -5.203125 L 7.234375 0 L 4.421875 0 L 4.421875 -5.109375 L 0 -13.34375 L 3.0625 -13.34375 Z M 5.828125 -7.859375 "/></g></g></g><g fill="#1c2d62" fill-opacity="1"><g transform="translate(347.025553, 132.013113)"><g><path d="M 6.828125 0 L 4 0 L 4 -11 L 0.375 -11 L 0.375 -13.34375 L 10.453125 -13.34375 L 10.453125 -11 L 6.828125 -11 Z M 6.828125 0 "/></g></g></g><g fill="#1c2d62" fill-opacity="1"><g transform="translate(357.849786, 132.013113)"><g><path d="M 12.625 0 L 9.796875 0 L 9.796875 -5.765625 L 4.515625 -5.765625 L 4.515625 0 L 1.6875 0 L 1.6875 -13.34375 L 4.515625 -13.34375 L 4.515625 -8.125 L 9.796875 -8.125 L 9.796875 -13.34375 L 12.625 -13.34375 Z M 12.625 0 "/></g></g></g><g fill="#1c2d62" fill-opacity="1"><g transform="translate(372.151284, 132.013113)"><g><path d="M 13.796875 -6.6875 C 13.796875 -4.476562 13.25 -2.78125 12.15625 -1.59375 C 11.0625 -0.40625 9.488281 0.1875 7.4375 0.1875 C 5.394531 0.1875 3.828125 -0.40625 2.734375 -1.59375 C 1.640625 -2.78125 1.09375 -4.488281 1.09375 -6.71875 C 1.09375 -8.9375 1.640625 -10.628906 2.734375 -11.796875 C 3.835938 -12.972656 5.414062 -13.5625 7.46875 -13.5625 C 9.507812 -13.5625 11.070312 -12.96875 12.15625 -11.78125 C 13.25 -10.601562 13.796875 -8.90625 13.796875 -6.6875 Z M 4.0625 -6.6875 C 4.0625 -5.195312 4.34375 -4.070312 4.90625 -3.3125 C 5.46875 -2.5625 6.3125 -2.1875 7.4375 -2.1875 C 9.695312 -2.1875 10.828125 -3.6875 10.828125 -6.6875 C 10.828125 -9.695312 9.707031 -11.203125 7.46875 -11.203125 C 6.332031 -11.203125 5.476562 -10.820312 4.90625 -10.0625 C 4.34375 -9.3125 4.0625 -8.1875 4.0625 -6.6875 Z M 4.0625 -6.6875 "/></g></g></g><g fill="#1c2d62" fill-opacity="1"><g transform="translate(387.027732, 132.013113)"><g><path d="M 13.53125 0 L 9.921875 0 L 4.125 -10.09375 L 4.03125 -10.09375 C 4.144531 -8.3125 4.203125 -7.039062 4.203125 -6.28125 L 4.203125 0 L 1.6875 0 L 1.6875 -13.34375 L 5.25 -13.34375 L 11.046875 -3.359375 L 11.109375 -3.359375 C 11.023438 -5.085938 10.984375 -6.3125 10.984375 -7.03125 L 10.984375 -13.34375 L 13.53125 -13.34375 Z M 13.53125 0 "/></g></g></g><g fill="#1c2d62" fill-opacity="1"><g transform="translate(402.229789, 132.013113)"><g/></g></g></svg>