<?xml version="1.0" encoding="UTF-8" standalone="no"?>
<!-- Created with Inkscape (http://www.inkscape.org/) -->

<svg
   width="189.91396mm"
   height="46.498302mm"
   viewBox="0 0 189.91396 46.498302"
   version="1.1"
   id="svg185"
   xml:space="preserve"
   sodipodi:docname="logo.svg"
   inkscape:version="1.2.2 (b0a84865, 2022-12-01)"
   xmlns:inkscape="http://www.inkscape.org/namespaces/inkscape"
   xmlns:sodipodi="http://sodipodi.sourceforge.net/DTD/sodipodi-0.dtd"
   xmlns="http://www.w3.org/2000/svg"
   xmlns:svg="http://www.w3.org/2000/svg"><sodipodi:namedview
     id="namedview187"
     pagecolor="#ffffff"
     bordercolor="#000000"
     borderopacity="0.25"
     inkscape:showpageshadow="2"
     inkscape:pageopacity="0.0"
     inkscape:pagecheckerboard="0"
     inkscape:deskcolor="#d1d1d1"
     inkscape:document-units="mm"
     showgrid="false"
     inkscape:zoom="1.3428806"
     inkscape:cx="181.32662"
     inkscape:cy="124.35953"
     inkscape:window-width="1309"
     inkscape:window-height="456"
     inkscape:window-x="0"
     inkscape:window-y="43"
     inkscape:window-maximized="0"
     inkscape:current-layer="layer1" /><defs
     id="defs182" /><g
     inkscape:label="Layer 1"
     inkscape:groupmode="layer"
     id="layer1"
     transform="translate(-5.4993268,-33.391223)"><text
       xml:space="preserve"
       style="font-size:19.7556px;line-height:normal;font-family:'Hiragino Kaku Gothic StdN';-inkscape-font-specification:'Hiragino Kaku Gothic StdN';text-decoration-color:#000000;text-anchor:middle;fill:#d5ffe6;stroke-width:0.352777;-inkscape-stroke:none;stop-color:#000000"
       x="127.19732"
       y="70.696091"
       id="text1307"
       inkscape:export-filename="logo.svg"
       inkscape:export-xdpi="96"
       inkscape:export-ydpi="96"><tspan
         sodipodi:role="line"
         id="tspan1305"
         style="font-size:19.7556px;fill:#d5ffe6;stroke-width:0.352778"
         x="127.19732"
         y="70.696091">Nutri Online</tspan></text><g
       id="g1388"
       transform="matrix(0.09593919,0,0,0.09159052,5.4992963,33.193125)"><path
         style="fill:#aaffcc"
         d="m 73.836,6.638 c 37.319,-11.143 73.369,-0.76 80.52,23.19 7.151,23.95 -17.304,52.4 -54.622,63.543 C 71.506,101.8 26.059,88.344 5.597,81.288 3.068,80.416 1.114,78.379 0.348,75.815 -0.418,73.251 0.098,70.475 1.735,68.36 14.979,51.238 45.606,15.067 73.836,6.638 Z"
         id="path1359" /><path
         style="fill:#55ff99"
         d="m 73.836,6.638 c 37.319,-11.143 73.369,-0.76 80.52,23.19 C 67.658,42.247 0.348,75.813 0.348,75.813 -0.417,73.249 0.099,70.474 1.736,68.358 14.98,51.238 45.606,15.067 73.836,6.638 Z"
         id="path1361" /><path
         style="fill:#2aff80"
         d="m 226.429,10 c -0.992,-2.673 -3.132,-4.759 -5.829,-5.684 -2.697,-0.925 -5.667,-0.587 -8.092,0.912 -17.845,11.043 -53.147,40.29 -54.833,99.543 l 21.315,3.652 c 0,0 18.35,-41.425 52.902,-60.343 4.133,-2.262 5.991,-7.215 4.352,-11.633 z"
         id="path1363" /><path
         style="fill:#e3f4d7"
         d="m 274.648,268.243 c -22.221,-26.647 -34.433,-60.248 -34.433,-94.946 v 0 c 0,-43.499 -35.263,-78.761 -78.761,-78.761 -43.498,0 -78.761,35.263 -78.761,78.761 0,34.774 -12.162,68.238 -34.432,94.944 -21.304,25.547 -34.12,58.417 -34.12,94.281 0,81.36 65.955,147.313 147.315,147.313 81.36,0 147.314,-65.954 147.314,-147.313 -0.002,-35.862 -12.819,-68.732 -34.122,-94.279 z"
         id="path1365" /><path
         style="fill:#d7f4e3"
         d="m 274.648,268.243 c -22.221,-26.647 -34.433,-60.248 -34.433,-94.946 0,-43.499 -35.263,-78.761 -78.761,-78.761 v 415.301 c 81.359,0 147.313,-65.955 147.313,-147.313 10e-4,-35.864 -12.815,-68.734 -34.119,-94.281 z"
         id="path1367" /><path
         style="fill:#55ff99"
         d="m 408.295,170.697 c -0.924,-2.488 -2.916,-4.43 -5.426,-5.291 -2.51,-0.861 -5.275,-0.547 -7.532,0.85 -16.61,10.279 -49.47,37.502 -51.04,92.656 l 19.84,3.399 c 0,0 17.08,-38.559 49.242,-56.168 3.847,-2.106 5.576,-6.716 4.05,-10.828 z"
         id="path1369" /><path
         style="fill:#e3f4d7"
         d="m 459.541,240.241 c -22.601,-7.959 -50.487,-4.671 -73.666,6.974 -25.251,12.686 -55.02,12.665 -80.276,-0.015 -23.173,-11.634 -51.045,-14.915 -73.638,-6.959 -41.509,14.616 -62.781,61.612 -47.514,104.968 15.267,43.356 69.872,185.156 141.561,162.114 8.322,-2.675 14.806,-11.076 19.744,-23.138 4.938,12.063 11.422,20.464 19.744,23.138 71.688,23.041 126.293,-118.758 141.56,-162.114 15.267,-43.356 -6.006,-90.352 -47.515,-104.968 z"
         id="path1371" /><path
         style="fill:#d7f4e3"
         d="m 459.541,240.241 c -22.601,-7.959 -50.487,-4.671 -73.666,6.974 -12.531,6.295 -26.175,9.458 -39.827,9.5 v 228.169 c 4.9,11.684 11.288,19.818 19.447,22.441 71.688,23.041 126.293,-118.758 141.56,-162.114 15.268,-43.358 -6.005,-90.354 -47.514,-104.97 z"
         id="path1373" /></g></g></svg>
